<?xml version="1.0" standalone="no"?>
<!DOCTYPE svg PUBLIC "-//W3C//DTD SVG 20010904//EN"
 "http://www.w3.org/TR/2001/REC-SVG-20010904/DTD/svg10.dtd">
<svg version="1.0" xmlns="http://www.w3.org/2000/svg"
 width="1024.000000pt" height="1024.000000pt" viewBox="0 0 1024.000000 1024.000000"
 preserveAspectRatio="xMidYMid meet">

<g transform="translate(0.000000,1024.000000) scale(0.100000,-0.100000)"
fill="#000000" stroke="none">
<path d="M0 5120 l0 -5120 5120 0 5120 0 0 5120 0 5120 -5120 0 -5120 0 0
-5120z m3943 2253 c319 -912 543 -1540 565 -1583 24 -48 31 -55 60 -58 26 -3
39 3 67 31 l35 35 3 423 c5 870 2 1031 -16 1066 -19 37 -46 54 -97 63 -19 3
-34 10 -32 15 4 16 713 12 787 -4 129 -29 235 -94 295 -183 l35 -51 3 127 3
126 647 -2 647 -3 3 -225 c1 -126 -1 -220 -6 -215 -5 6 -17 41 -27 80 -26 98
-88 218 -133 255 -58 48 -145 70 -278 70 l-114 0 0 -755 c0 -851 -3 -811 72
-845 24 -11 60 -20 81 -20 20 0 37 -4 37 -8 0 -8 -308 -22 -492 -22 -72 0 -88
3 -88 15 0 10 11 15 35 15 53 0 109 27 131 63 18 31 19 56 19 792 l0 760 -115
-1 c-142 0 -199 -17 -270 -80 -74 -68 -120 -166 -132 -286 -10 -102 -19 -140
-53 -208 -24 -48 -97 -121 -156 -158 -51 -31 -164 -72 -200 -72 -18 0 -28 -4
-24 -10 3 -5 13 -10 21 -10 31 0 120 -50 163 -91 36 -35 68 -93 181 -324 150
-307 173 -341 260 -372 27 -10 50 -21 50 -25 0 -12 -230 -9 -275 3 -71 20
-111 75 -197 269 -42 96 -99 234 -127 305 -80 206 -112 230 -306 230 l-130 0
-3 -280 c-2 -154 0 -313 3 -354 6 -64 11 -78 39 -108 27 -30 40 -36 91 -42 33
-3 60 -10 60 -16 0 -13 -915 -19 -928 -6 -10 10 4 15 64 25 20 4 45 16 55 27
33 37 22 97 -58 319 l-74 205 -319 0 -320 0 -77 -190 c-87 -215 -97 -258 -74
-303 19 -37 37 -48 91 -57 126 -21 97 -30 -110 -31 -102 -1 -185 3 -185 8 0 4
12 13 28 19 41 15 71 48 102 109 32 64 395 946 602 1463 28 70 54 127 57 127
4 0 15 -21 24 -47z m2992 -1898 c69 -33 144 -104 174 -163 49 -97 64 -251 36
-371 -41 -173 -161 -288 -323 -311 -136 -19 -263 21 -345 109 -55 59 -82 111
-102 193 -49 208 26 439 171 524 74 44 120 54 229 51 88 -2 108 -6 160 -32z
m-3744 11 c-70 -25 -67 -38 53 -244 54 -92 55 -93 69 -70 8 13 49 77 91 142
69 109 75 121 62 140 -7 12 -28 26 -47 33 -28 10 8 12 206 12 170 -1 230 -4
207 -10 -54 -16 -63 -52 -60 -232 l3 -152 178 0 178 0 0 150 c1 186 1 187 -10
203 -4 7 -26 20 -47 27 -34 12 16 14 422 15 501 0 509 -1 582 -57 70 -53 91
-168 47 -252 -17 -34 -97 -91 -127 -91 -10 0 -18 -4 -18 -10 0 -5 8 -10 18
-10 40 0 121 -49 147 -89 58 -86 42 -215 -35 -285 -70 -63 -89 -65 -596 -67
-250 -1 -458 1 -461 5 -4 3 2 6 13 6 11 0 30 7 42 16 21 15 22 20 22 214 l0
198 -172 -4 c-95 -3 -177 -9 -181 -13 -13 -13 3 -378 17 -389 6 -5 25 -14 41
-20 22 -8 -34 -10 -225 -10 -190 0 -247 3 -223 10 61 20 57 34 -64 246 -36 61
-68 112 -71 112 -10 -1 -160 -254 -167 -283 -10 -37 9 -64 52 -75 27 -7 -78
-10 -367 -10 -330 0 -399 2 -371 12 62 22 61 14 61 416 0 402 1 394 -61 416
-28 10 47 12 396 12 354 0 424 -2 396 -12z m2222 -1 c-17 -7 -36 -22 -42 -34
-17 -30 -15 -728 2 -761 7 -14 28 -30 47 -36 33 -11 29 -12 -55 -18 -50 -3
-115 -2 -145 3 -30 5 -45 9 -34 10 12 0 32 10 45 20 l24 19 3 354 c2 232 0
366 -7 389 -9 29 -20 40 -49 52 -36 16 -33 16 103 16 128 0 137 -1 108 -14z
m922 1 c-62 -27 -60 -14 -60 -415 1 -400 1 -404 58 -420 23 -7 -6 -9 -113 -10
-125 0 -140 2 -110 12 59 20 60 26 60 412 0 193 -3 360 -6 373 -6 21 -49 52
-74 52 -6 0 -10 -38 -10 -105 0 -63 -4 -105 -10 -105 -5 0 -10 9 -10 20 0 39
-42 130 -72 155 -27 23 -38 26 -95 23 l-65 -3 -2 -391 c-1 -427 -3 -416 58
-432 23 -7 -3 -11 -103 -16 -93 -6 -136 -5 -144 3 -8 8 -5 11 11 11 13 0 34
11 48 25 l24 24 -2 388 -3 388 -68 3 c-65 3 -69 1 -97 -28 -27 -29 -52 -83
-64 -142 -4 -16 -11 -28 -16 -28 -6 0 -10 45 -10 110 l0 110 453 0 c381 -1
447 -3 422 -14z m1123 -214 c78 -125 176 -279 217 -342 l75 -115 0 308 c0 192
-4 316 -10 327 -6 11 -23 26 -38 34 -25 14 -21 15 73 15 91 0 97 -1 70 -13
-62 -27 -60 -12 -63 -448 -3 -367 -4 -398 -20 -398 -15 0 -211 294 -444 663
-24 37 -46 67 -50 67 -4 0 -6 -150 -5 -333 2 -365 1 -356 62 -383 27 -12 20
-13 -75 -13 -99 1 -103 1 -73 15 18 7 37 22 43 33 6 13 10 152 10 389 0 405 3
386 -60 411 -20 8 -7 10 60 10 l85 1 143 -228z m-3388 -960 c25 -48 46 -90 48
-94 2 -5 -10 -8 -27 -8 -21 0 -31 5 -31 15 0 20 -115 22 -127 2 -10 -16 -53
-29 -53 -16 0 11 78 168 91 185 5 6 20 9 32 7 18 -4 34 -26 67 -91z m252 67
c24 -28 18 -77 -12 -98 -20 -13 -20 -13 1 -42 l20 -29 -26 0 c-17 0 -35 11
-52 30 -13 17 -31 30 -39 30 -9 0 -14 -11 -14 -30 0 -23 -4 -30 -20 -30 -18 0
-20 7 -20 58 0 31 -3 73 -6 94 -6 32 -4 37 17 41 13 3 48 4 78 3 43 -2 58 -8
73 -27z m228 8 c0 -20 -4 -23 -35 -19 l-35 4 0 -81 c0 -80 0 -81 -25 -81 -25
0 -25 1 -25 80 l0 80 -35 0 c-28 0 -35 4 -35 20 0 19 7 20 95 20 92 0 95 -1
95 -23z m263 -56 c44 -83 48 -83 92 9 27 56 31 60 62 60 l33 0 0 -95 0 -95
-26 0 -27 0 7 66 c4 36 3 63 -1 61 -5 -3 -22 -33 -38 -66 -24 -52 -33 -61 -55
-61 -21 0 -32 11 -63 68 l-37 67 0 -67 c0 -66 -1 -68 -25 -68 -25 0 -25 0 -25
93 0 52 2 96 5 98 2 3 17 4 32 4 24 -1 33 -11 66 -74z m271 73 c12 -5 16 -21
16 -73 0 -72 10 -91 46 -91 39 0 54 26 54 95 0 46 4 64 15 68 18 8 22 1 25
-43 7 -95 2 -119 -32 -140 -44 -27 -90 -26 -124 4 -24 20 -28 32 -32 89 -4 61
0 97 12 97 2 0 11 -3 20 -6z m355 -7 c38 -19 21 -32 -44 -32 -47 0 -60 -3 -63
-16 -2 -13 9 -17 53 -22 66 -7 85 -19 85 -57 0 -34 -27 -59 -73 -67 -42 -6
-107 13 -107 33 0 11 11 13 55 8 38 -5 59 -3 70 6 25 20 0 39 -50 37 -23 -1
-50 5 -59 12 -17 14 -21 58 -8 77 22 33 96 44 141 21z m241 -12 c0 -12 -13
-15 -60 -15 -57 0 -60 -1 -60 -25 0 -24 3 -25 60 -25 46 0 60 -3 60 -15 0 -10
-15 -15 -57 -17 -51 -3 -58 -6 -61 -25 -3 -22 0 -23 57 -23 48 0 61 -3 61 -15
0 -12 -16 -15 -85 -15 l-85 0 0 95 0 95 85 0 c69 0 85 -3 85 -15z m90 -49 c0
-71 14 -96 55 -96 41 0 55 25 55 96 0 57 2 64 19 64 16 0 21 -9 26 -43 16
-103 -33 -165 -119 -154 -61 8 -76 33 -76 123 0 67 2 74 20 74 18 0 20 -7 20
-64z m306 -8 l37 -73 36 73 c35 70 36 72 73 72 l38 0 0 -95 c0 -94 0 -95 -25
-95 -23 0 -24 4 -27 63 l-3 62 -33 -62 c-26 -51 -37 -63 -57 -63 -20 0 -31 12
-57 63 l-33 62 -3 -62 c-3 -55 -6 -63 -22 -63 -18 0 -20 7 -20 95 l0 95 30 0
c27 0 33 -7 66 -72z m-973 -385 c-23 -9 -14 -20 15 -20 53 0 62 -3 62 -23 0
-24 18 -26 35 -3 8 11 14 13 19 5 4 -7 1 -12 -6 -12 -9 0 -9 -3 2 -10 11 -7 0
-9 -37 -7 -40 2 -56 8 -73 27 -15 17 -20 20 -16 8 4 -12 0 -18 -11 -18 -9 0
-13 3 -10 6 3 4 2 15 -3 25 -10 17 0 27 25 27 6 0 4 -2 -2 -5z m-58 -13 c-3
-5 -14 -10 -23 -10 -15 0 -15 2 -2 10 20 13 33 13 25 0z m160 0 c8 -13 -5 -13
-25 0 -13 8 -13 10 2 10 9 0 20 -4 23 -10z m-505 -8 c0 -4 -18 -6 -40 -4 -22
2 -40 6 -40 8 0 2 18 4 40 4 22 0 40 -3 40 -8z m297 2 c-3 -3 -12 -4 -19 -1
-8 3 -5 6 6 6 11 1 17 -2 13 -5z m260 0 c-3 -3 -12 -4 -19 -1 -8 3 -5 6 6 6
11 1 17 -2 13 -5z m236 -1 c-7 -2 -13 -12 -13 -20 0 -9 -3 -14 -6 -10 -10 10
4 37 18 36 10 0 10 -2 1 -6z m130 0 c22 -3 33 -9 27 -13 -8 -5 -8 -11 2 -21
12 -12 16 -64 8 -94 -1 -5 -3 -23 -4 -39 0 -16 -7 -31 -14 -33 -9 -4 -10 1 -3
20 5 14 7 27 5 30 -3 3 -1 14 5 26 6 11 7 22 3 25 -5 3 -8 15 -7 27 3 36 -38
67 -92 72 -46 3 -46 3 -8 5 22 1 57 -1 78 -5z m-1023 -13 c12 -7 12 -12 2 -22
-9 -9 -12 -9 -12 4 0 9 -6 19 -12 21 -7 3 -8 6 -3 6 6 0 17 -4 25 -9z m454
-15 c-15 -23 -34 -26 -34 -4 0 7 27 24 48 28 1 1 -5 -10 -14 -24z m-324 -5 c0
-5 -2 -10 -4 -10 -3 0 -8 5 -11 10 -3 6 -1 10 4 10 6 0 11 -4 11 -10z m250 -2
c0 17 17 15 24 -3 4 -11 -2 -15 -24 -15 -23 0 -28 4 -23 16 5 13 7 13 14 2 7
-10 9 -10 9 0z m557 -51 c4 2 8 -4 8 -13 0 -8 9 -20 19 -26 17 -9 18 -8 14 16
-3 14 -4 26 -3 26 1 0 16 -5 34 -11 25 -9 29 -14 20 -25 -6 -8 -19 -14 -29
-14 -24 0 -35 -32 -16 -46 13 -9 16 -32 16 -108 0 -53 -4 -96 -9 -96 -5 0 -13
26 -19 58 l-10 57 0 -50 c0 -63 6 -85 23 -85 7 0 1 -13 -16 -31 -28 -30 -40
-79 -19 -79 6 0 10 11 10 24 0 13 7 30 17 37 15 13 15 12 5 -8 -15 -27 -15
-45 -1 -20 12 21 33 22 53 2 8 -9 18 -16 21 -15 3 0 5 -2 5 -5 0 -3 0 -11 0
-19 0 -17 -98 -27 -104 -11 -2 6 -7 6 -12 2 -5 -5 -1 -15 10 -23 16 -11 21
-11 28 -1 7 11 12 2 9 -17 -1 -5 6 -6 15 -2 14 5 15 4 4 -9 -7 -8 -8 -15 -2
-15 12 0 33 25 26 32 -2 3 1 8 8 11 10 3 14 -10 15 -52 1 -38 -1 -47 -5 -27
-8 33 -32 48 -32 19 0 -15 -3 -14 -20 7 -11 14 -20 21 -20 16 0 -6 -7 -1 -16
10 -14 17 -15 17 -10 1 3 -10 7 -53 8 -95 1 -62 2 -67 5 -24 3 34 8 52 17 52
9 0 15 -23 19 -77 3 -43 8 -86 12 -95 6 -14 2 -18 -15 -18 l-22 0 23 -21 24
-21 -25 15 c-20 11 -26 24 -27 57 -4 67 -13 61 -13 -9 0 -34 3 -60 8 -58 4 2
17 -7 30 -20 12 -13 17 -23 10 -22 -18 3 -48 -11 -48 -22 0 -6 9 -5 21 1 29
16 44 7 47 -26 1 -16 -2 -24 -6 -18 -4 6 -17 13 -29 16 -21 6 -21 5 -6 -18 20
-32 0 -31 -24 1 -17 24 -22 25 -150 26 -128 2 -174 13 -95 22 20 3 -44 4 -143
2 -117 -2 -188 1 -204 9 -19 8 -25 8 -29 -2 -3 -10 -7 -10 -18 -1 -10 8 -14 8
-14 0 0 -7 -25 -11 -70 -11 -40 0 -70 4 -70 10 0 6 -9 10 -20 10 -11 0 -20 -4
-20 -10 0 -5 7 -7 15 -4 8 4 15 1 15 -5 0 -9 -37 -16 -63 -12 -4 1 -17 -4 -28
-10 -18 -9 -19 -8 -11 8 5 10 8 93 8 185 -1 106 3 168 9 168 6 0 11 33 12 76
1 59 -2 74 -12 70 -8 -3 -14 6 -17 25 -3 16 0 29 4 29 5 0 9 57 8 128 -1 86 2
138 11 160 14 33 14 33 69 27 30 -4 213 -3 406 1 351 7 351 7 348 28 -3 13 1
10 10 -9 8 -16 18 -29 23 -28z m-730 37 c-3 -3 -12 -4 -19 -1 -8 3 -5 6 6 6
11 1 17 -2 13 -5z m280 0 c-3 -3 -12 -4 -19 -1 -8 3 -5 6 6 6 11 1 17 -2 13
-5z m221 -1 c-10 -2 -26 -2 -35 0 -10 3 -2 5 17 5 19 0 27 -2 18 -5z m136 -2
c3 -5 -5 -8 -19 -7 -14 0 -25 4 -25 9 0 10 38 9 44 -2z m36 -1 c0 -5 -2 -10
-4 -10 -3 0 -8 5 -11 10 -3 6 -1 10 4 10 6 0 11 -4 11 -10z m-582 -7 c-10 -2
-28 -2 -40 0 -13 2 -5 4 17 4 22 1 32 -1 23 -4z m-230 -17 c-7 -8 -14 -10 -16
-5 -2 5 -8 9 -13 9 -6 0 -8 -4 -5 -9 3 -5 -3 -11 -14 -14 -12 -3 -20 0 -20 7
0 19 6 22 45 24 31 2 35 1 23 -12z m-33 -86 c13 11 15 6 16 -36 0 -27 2 -60 4
-74 5 -37 -6 -100 -16 -94 -5 3 -9 1 -9 -4 0 -5 -7 -9 -15 -9 -13 0 -13 2 0
17 11 12 15 39 15 93 0 68 -2 76 -17 71 -15 -5 -15 -4 -3 4 12 9 12 14 -5 32
-14 16 -20 17 -27 8 -4 -7 -8 -10 -8 -5 0 4 5 16 12 27 12 18 13 17 25 -12 11
-25 15 -28 28 -18z m990 0 c-3 -5 -11 -10 -16 -10 -6 0 -7 5 -4 10 3 6 11 10
16 10 6 0 7 -4 4 -10z m-1038 -32 c-3 -8 -6 -5 -6 6 -1 11 2 17 5 13 3 -3 4
-12 1 -19z m-9 -215 c-5 -21 -13 -54 -18 -73 l-8 -35 -1 32 c0 18 3 42 8 55 5
13 12 31 15 41 10 33 14 17 4 -20z m1086 12 c-3 -8 1 -24 10 -37 9 -12 15 -36
15 -53 -1 -19 -3 -23 -6 -10 -2 11 -6 30 -9 43 -2 12 -11 22 -19 22 -17 0 -18
4 -9 37 4 13 10 20 15 18 4 -3 6 -12 3 -20z m-34 -29 c0 -2 -7 -6 -15 -10 -8
-3 -15 -1 -15 4 0 6 7 10 15 10 8 0 15 -2 15 -4z m-1033 -31 c0 -8 -4 -15 -9
-15 -10 0 -11 14 -1 23 9 10 10 9 10 -8z m53 -29 c0 -14 -33 -33 -49 -29 -29
8 -14 33 20 33 16 0 29 -2 29 -4z m23 -36 c-3 -11 -7 -20 -9 -20 -2 0 -4 9 -4
20 0 11 4 20 9 20 5 0 7 -9 4 -20z m-50 -30 c3 -11 4 -20 3 -20 -1 0 -9 9 -19
20 -13 15 -14 20 -3 20 7 0 16 -9 19 -20z m22 10 c-3 -5 -1 -10 5 -10 6 0 8
-5 4 -11 -4 -8 -9 -7 -15 2 -12 19 -11 29 2 29 5 0 7 -4 4 -10z m-78 -22 c-3
-8 -6 -5 -6 6 -1 11 2 17 5 13 3 -3 4 -12 1 -19z m17 -33 c3 -8 1 -15 -4 -15
-6 0 -10 7 -10 15 0 8 2 15 4 15 2 0 6 -7 10 -15z m46 11 c0 -3 -4 -8 -10 -11
-5 -3 -10 -1 -10 4 0 6 5 11 10 11 6 0 10 -2 10 -4z m20 -128 c0 -62 -5 -120
-10 -128 -12 -18 -12 -19 -14 99 -1 82 -2 85 -26 92 -23 6 -23 7 -3 8 12 1 24
10 28 21 15 48 25 12 25 -92z m927 90 c-3 -8 -6 -5 -6 6 -1 11 2 17 5 13 3 -3
4 -12 1 -19z m79 -236 c3 -23 2 -42 -3 -42 -4 0 -9 21 -11 47 -4 57 6 53 14
-5z m-1061 10 c2 -12 0 -24 -6 -27 -5 -4 -9 8 -9 26 0 35 8 35 15 1z m38 -59
c-7 -2 -19 -2 -25 0 -7 3 -2 5 12 5 14 0 19 -2 13 -5z m1028 -56 c-13 -13 -23
9 -15 35 l7 23 9 -24 c5 -15 5 -28 -1 -34z m-1069 2 c-5 -36 -11 -33 -16 8 -2
21 1 30 9 27 7 -3 10 -17 7 -35z m58 27 c0 -3 -4 -8 -10 -11 -5 -3 -10 -1 -10
4 0 6 5 11 10 11 6 0 10 -2 10 -4z m598 -3 c-10 -2 -26 -2 -35 0 -10 3 -2 5
17 5 19 0 27 -2 18 -5z m-275 -26 c-4 -7 1 -6 11 2 14 12 22 12 37 3 10 -7 19
-8 19 -3 0 13 412 1 429 -13 12 -8 13 -8 7 2 -6 10 -2 10 18 0 14 -6 26 -16
26 -21 0 -5 -5 -5 -13 1 -14 12 -31 4 -40 -18 -4 -13 -6 -12 -6 1 -1 19 -43
24 -253 35 -106 6 -118 5 -118 -10 0 -10 -5 -14 -10 -11 -6 4 -8 11 -5 16 4 5
-4 9 -16 9 -20 0 -21 -1 -6 -24 14 -21 14 -26 2 -36 -17 -14 -45 -6 -44 12 0
10 2 10 6 1 7 -18 33 -16 33 2 0 20 -42 58 -50 44 -6 -9 -172 -15 -215 -8 -5
1 -13 1 -16 1 -3 -1 -6 6 -6 14 0 18 57 19 76 2 11 -11 12 -10 6 0 -6 11 5 13
49 11 31 -1 59 0 62 4 11 10 25 -3 17 -16z m-273 -13 c0 -8 -5 -12 -10 -9 -6
4 -8 11 -5 16 9 14 15 11 15 -7z m960 -36 c0 -17 -2 -18 -15 -8 -13 10 -19 10
-33 -4 -23 -20 -62 -21 -88 0 -18 15 -18 15 3 5 27 -14 76 -4 100 19 21 21 33
17 33 -12z m-542 -3 c-3 -3 -9 2 -12 12 -6 14 -5 15 5 6 7 -7 10 -15 7 -18z
m-497 -3 c-7 -2 -18 1 -23 6 -8 8 -4 9 13 5 13 -4 18 -8 10 -11z m65 5 c6 2
24 -3 40 -12 26 -13 27 -15 7 -15 -13 0 -23 5 -23 10 0 7 -6 7 -19 0 -11 -5
-30 -9 -43 -9 -18 1 -19 2 -5 6 15 4 16 7 5 20 -11 14 -11 15 7 6 11 -6 25 -9
31 -6z m497 1 c-6 -11 -43 -10 -43 1 0 5 11 8 24 7 13 0 22 -4 19 -8z m-598
-8 c3 -5 1 -10 -4 -10 -6 0 -11 5 -11 10 0 6 2 10 4 10 3 0 8 -4 11 -10z m410
-18 c-3 -3 -11 0 -18 7 -9 10 -8 11 6 5 10 -3 15 -9 12 -12z m245 14 c0 -2
-15 -9 -32 -15 -30 -10 -31 -9 -14 4 18 14 46 20 46 11z m-95 -16 c16 -7 13
-9 -17 -9 -21 -1 -38 4 -38 9 0 12 27 12 55 0z"/>
<path d="M4872 6944 l3 -399 127 1 c150 2 241 25 310 77 99 76 142 173 142
322 1 192 -69 305 -225 367 -44 18 -81 22 -207 26 l-152 4 2 -398z"/>
<path d="M3810 7063 c-48 -105 -300 -727 -300 -743 0 -6 109 -10 301 -10 261
0 300 2 295 15 -18 49 -210 587 -238 667 -18 54 -36 98 -39 98 -3 0 -12 -12
-19 -27z"/>
<path d="M6710 5481 c-142 -30 -230 -188 -230 -418 0 -284 152 -457 355 -402
57 16 136 99 165 175 68 183 40 457 -59 567 -56 63 -151 95 -231 78z"/>
<path d="M2927 5483 c-4 -3 -7 -53 -7 -110 0 -62 -4 -103 -10 -103 -5 0 -10
10 -10 23 0 47 -30 123 -60 152 -31 29 -34 30 -151 33 l-119 4 0 -196 0 -196
53 0 c71 1 126 15 143 37 7 10 17 35 20 56 14 81 24 41 24 -97 0 -140 -11
-188 -24 -107 -3 21 -14 49 -25 62 -17 21 -29 24 -105 28 l-86 3 0 -207 0
-207 124 3 c169 5 182 16 223 184 5 21 9 -2 13 -77 3 -58 8 -109 12 -113 9 -9
38 8 64 37 27 29 224 344 224 358 0 15 -210 380 -234 406 -23 24 -58 38 -69
27z"/>
<path d="M4283 5475 c-24 -10 -33 -22 -38 -47 -3 -18 -5 -192 -3 -386 l3 -354
25 -20 c30 -24 97 -20 117 8 10 14 13 104 13 395 0 330 -2 380 -16 393 -8 9
-21 16 -29 16 -7 0 -19 2 -27 5 -7 2 -27 -2 -45 -10z"/>
<path d="M4543 5480 c-42 -17 -46 -60 -37 -446 l9 -359 29 -13 c37 -18 86 -5
103 28 17 33 18 702 2 748 -7 20 -21 34 -41 41 -36 13 -36 13 -65 1z"/>
<path d="M3553 5465 c-21 -15 -233 -336 -233 -353 0 -12 236 -411 257 -434 18
-21 63 -24 81 -6 9 9 12 109 12 388 0 324 -2 379 -16 398 -18 26 -68 30 -101
7z"/>
<path d="M4766 5464 c-3 -9 -6 -94 -6 -190 l0 -174 63 0 c149 0 217 56 217
177 0 135 -72 203 -216 203 -38 0 -53 -4 -58 -16z"/>
<path d="M4762 4868 l3 -203 93 2 c75 1 99 6 127 23 55 34 78 81 83 169 3 66
0 82 -20 120 -36 68 -88 91 -200 91 l-88 0 2 -202z"/>
<path d="M3977 4315 l-17 -35 35 0 c19 0 35 2 35 5 0 8 -30 65 -33 65 -2 0
-11 -16 -20 -35z"/>
<path d="M4200 4335 c0 -33 2 -35 34 -35 33 0 66 21 66 40 0 15 -36 30 -69 30
-29 0 -31 -3 -31 -35z"/>
<path d="M5140 3895 c0 -9 5 -15 11 -13 6 2 11 8 11 13 0 5 -5 11 -11 13 -6 2
-11 -4 -11 -13z"/>
<path d="M4929 3819 c-8 -5 -65 -7 -126 -4 -94 3 -113 2 -113 -10 0 -8 5 -15
10 -15 8 0 10 -122 8 -385 l-3 -385 43 0 c24 0 41 -4 38 -8 -2 -4 4 -9 15 -9
10 -1 19 2 19 8 0 5 7 9 15 9 8 0 15 -4 15 -10 0 -5 8 -10 18 -10 14 0 15 2 2
10 -12 7 -8 10 15 11 74 2 99 6 103 17 2 8 8 7 19 -3 8 -8 20 -12 26 -8 8 5 8
8 -1 11 -7 2 -10 8 -6 13 3 5 1 9 -5 9 -5 0 -9 9 -8 20 2 27 6 25 18 -7 7 -20
12 -24 18 -14 7 11 9 11 13 0 2 -7 9 -10 15 -6 6 4 -8 25 -33 52 -57 59 -58
82 -4 75 13 -1 12 1 -1 15 -14 14 -21 15 -38 6 -12 -7 -27 -9 -33 -5 -6 4 -8
3 -5 -3 4 -6 -9 -28 -29 -49 l-35 -39 7 30 c4 17 14 39 23 49 10 12 11 16 3
12 -10 -6 -13 -3 -10 10 3 17 12 19 68 16 39 -1 70 -8 80 -17 9 -8 19 -15 23
-15 11 0 34 52 41 92 4 20 14 39 22 42 11 4 15 17 13 41 -2 19 0 35 4 35 4 0
12 0 17 0 6 0 10 -16 10 -37 0 -34 1 -35 18 -20 16 15 17 13 17 -31 -1 -26 3
-58 7 -72 7 -19 5 -27 -13 -41 -13 -9 -28 -15 -34 -13 -7 3 -22 -4 -36 -14
l-24 -20 39 -16 c21 -9 50 -17 65 -17 20 -1 21 -2 7 -6 -18 -5 -18 -6 5 -20
18 -10 19 -13 4 -9 -24 7 -50 -8 -41 -22 4 -8 -4 -8 -26 0 -62 19 -88 21 -88
6 0 -8 6 -20 13 -27 10 -11 6 -12 -20 -6 -21 4 -33 3 -33 -4 0 -12 50 -14 302
-12 137 1 157 -1 152 -14 -4 -10 0 -15 15 -15 25 0 25 6 6 40 -12 20 -14 92
-15 388 0 235 4 362 10 362 6 0 10 5 10 11 0 6 -7 8 -16 5 -14 -5 -15 -4 -4 9
11 13 -3 15 -126 15 -77 0 -209 2 -295 4 -86 2 -163 0 -170 -5z m61 -382 c0
-5 -9 -7 -21 -4 -15 4 -19 2 -15 -9 6 -17 -10 -19 -20 -3 -3 6 -1 15 7 19 17
11 49 8 49 -3z m-86 -46 c3 -4 16 -6 28 -4 22 4 23 2 20 -56 -3 -44 0 -61 9
-61 18 0 8 -7 -33 -24 l-36 -15 0 66 c0 36 -5 70 -11 76 -6 6 -11 15 -11 19 0
11 27 10 34 -1z m-54 -50 c0 -5 -9 -7 -20 -4 -11 3 -20 7 -20 9 0 2 9 4 20 4
11 0 20 -4 20 -9z m560 -31 c0 -5 8 -6 17 -3 13 5 15 2 10 -12 -5 -10 -1 -28
9 -44 17 -26 17 -26 -3 -8 -35 31 -63 15 -42 -24 9 -17 8 -20 -3 -17 -23 8
-33 53 -18 87 12 29 30 42 30 21z m-538 -65 c10 6 10 5 1 -5 -10 -11 -15 -11
-28 0 -8 7 -15 18 -15 24 0 6 7 3 15 -8 8 -11 19 -15 27 -11z m598 -39 c0 -2
-7 -7 -16 -10 -8 -3 -12 -2 -9 4 6 10 25 14 25 6z m-194 -63 c-6 -14 -9 -15
-16 -4 -11 19 -1 46 13 32 5 -5 7 -18 3 -28z m-276 -63 c0 -11 -4 -20 -9 -20
-5 0 -7 9 -4 20 3 11 7 20 9 20 2 0 4 -9 4 -20z m250 -15 c11 -13 10 -14 -4
-9 -9 3 -16 10 -16 15 0 13 6 11 20 -6z m-306 -11 c3 -8 2 -12 -4 -9 -6 3 -10
10 -10 16 0 14 7 11 14 -7z"/>
<path d="M4921 3354 c0 -11 3 -14 6 -6 3 7 2 16 -1 19 -3 4 -6 -2 -5 -13z"/>
<path d="M5590 3810 c0 -5 7 -10 15 -10 8 0 15 5 15 10 0 6 -7 10 -15 10 -8 0
-15 -4 -15 -10z"/>
<path d="M5562 3700 c-1 -22 2 -40 7 -40 5 0 9 18 9 40 0 22 -3 40 -7 40 -4 0
-8 -18 -9 -40z"/>
<path d="M5570 3409 c0 -5 12 -9 27 -9 30 0 27 9 -6 15 -11 2 -21 0 -21 -6z"/>
<path d="M4675 3050 c-3 -5 -1 -10 4 -10 6 0 11 5 11 10 0 6 -2 10 -4 10 -3 0
-8 -4 -11 -10z"/>
<path d="M5008 3003 c7 -3 16 -2 19 1 4 3 -2 6 -13 5 -11 0 -14 -3 -6 -6z"/>
<path d="M5388 2983 c18 -2 45 -2 60 0 15 2 0 4 -33 4 -33 0 -45 -2 -27 -4z"/>
</g>
</svg>
